<svg width="45.000000" height="45.000000" viewBox="0 0 45 45" fill="none" xmlns="http://www.w3.org/2000/svg" xmlns:xlink="http://www.w3.org/1999/xlink">
	<desc>
			Created with Pixso.
	</desc>
	<defs>
		<linearGradient x1="30.527920" y1="15.389306" x2="12.071070" y2="32.946537" id="paint_linear_2_114_0" gradientUnits="userSpaceOnUse">
			<stop stop-color="#F4B83F"/>
			<stop offset="1.000000" stop-color="#F7D046"/>
		</linearGradient>
	</defs>
	<g opacity="0.300000">
		<rect id="Rectangle 39736" x="0.000002" rx="22.500000" width="45.000000" height="45.000000" fill="#F4F4F4" fill-opacity="1.000000"/>
	</g>
	<path id="Vector" d="M20.99 32.32C20.99 32.89 20.79 33.37 20.4 33.77C20.01 34.16 19.54 34.36 19 34.36C18.45 34.36 17.98 34.16 17.59 33.77C17.2 33.37 17 32.89 17 32.32C17 31.76 17.2 31.29 17.59 30.89C17.98 30.49 18.45 30.29 19 30.29C19.54 30.29 20.01 30.49 20.4 30.89C20.79 31.29 20.99 31.76 20.99 32.32ZM32 32.32C32 32.89 31.81 33.37 31.42 33.77C31.03 34.16 30.55 34.36 29.99 34.36C29.44 34.36 28.97 34.16 28.58 33.77C28.19 33.37 28 32.89 28 32.32C28 31.76 28.19 31.29 28.58 30.89C28.97 30.49 29.44 30.29 29.99 30.29C30.55 30.29 31.03 30.49 31.42 30.89C31.81 31.29 32 31.76 32 32.32ZM33.78 16.49C33.69 16.33 33.57 16.23 33.43 16.17C33.29 16.12 33.14 16.09 32.99 16.09L16.79 16.09L16 11.8C15.95 11.55 15.83 11.35 15.64 11.21C15.46 11.07 15.24 11 14.99 11L11 11C10.69 11 10.44 11.09 10.26 11.28C10.08 11.47 10 11.72 10 12.02C10 12.32 10.08 12.57 10.26 12.76C10.44 12.95 10.69 13.04 11 13.04L14.19 13.04L14.99 17.3C14.99 17.3 14.99 17.32 14.99 17.35C14.99 17.38 14.99 17.4 14.99 17.4L16.7 25.82C16.84 26.53 17.18 27.12 17.73 27.58C18.28 28.04 18.9 28.27 19.6 28.27C19.6 28.27 19.61 28.27 19.62 28.27C19.62 28.27 19.65 28.27 19.7 28.27L29.4 28.27C30.15 28.27 30.8 28.04 31.35 27.58C31.89 27.12 32.25 26.53 32.4 25.82L34 17.3C34 17.14 33.99 16.99 33.97 16.85C33.96 16.71 33.89 16.59 33.78 16.49ZM30.39 25.42C30.34 25.67 30.23 25.87 30.05 26.01C29.87 26.15 29.65 26.23 29.4 26.23L19.7 26.23C19.45 26.23 19.23 26.15 19.04 26.01C18.85 25.87 18.74 25.67 18.69 25.42L17.19 18.11L31.79 18.11L30.39 25.42Z" fill="#00FD00" fill-opacity="1.000000" fill-rule="nonzero"/>
	<path id="Vector" d="M20.99 32.32C20.99 32.89 20.79 33.37 20.4 33.77C20.01 34.16 19.54 34.36 19 34.36C18.45 34.36 17.98 34.16 17.59 33.77C17.2 33.37 17 32.89 17 32.32C17 31.76 17.2 31.29 17.59 30.89C17.98 30.49 18.45 30.29 19 30.29C19.54 30.29 20.01 30.49 20.4 30.89C20.79 31.29 20.99 31.76 20.99 32.32ZM32 32.32C32 32.89 31.81 33.37 31.42 33.77C31.03 34.16 30.55 34.36 29.99 34.36C29.44 34.36 28.97 34.16 28.58 33.77C28.19 33.37 28 32.89 28 32.32C28 31.76 28.19 31.29 28.58 30.89C28.97 30.49 29.44 30.29 29.99 30.29C30.55 30.29 31.03 30.49 31.42 30.89C31.81 31.29 32 31.76 32 32.32ZM33.78 16.49C33.69 16.33 33.57 16.23 33.43 16.17C33.29 16.12 33.14 16.09 32.99 16.09L16.79 16.09L16 11.8C15.95 11.55 15.83 11.35 15.64 11.21C15.46 11.07 15.24 11 14.99 11L11 11C10.69 11 10.44 11.09 10.26 11.28C10.08 11.47 10 11.72 10 12.02C10 12.32 10.08 12.57 10.26 12.76C10.44 12.95 10.69 13.04 11 13.04L14.19 13.04L14.99 17.3C14.99 17.3 14.99 17.32 14.99 17.35C14.99 17.38 14.99 17.4 14.99 17.4L16.7 25.82C16.84 26.53 17.18 27.12 17.73 27.58C18.28 28.04 18.9 28.27 19.6 28.27C19.6 28.27 19.61 28.27 19.62 28.27C19.62 28.27 19.65 28.27 19.7 28.27L29.4 28.27C30.15 28.27 30.8 28.04 31.35 27.58C31.89 27.12 32.25 26.53 32.4 25.82L34 17.3C34 17.14 33.99 16.99 33.97 16.85C33.96 16.71 33.89 16.59 33.78 16.49ZM30.39 25.42C30.34 25.67 30.23 25.87 30.05 26.01C29.87 26.15 29.65 26.23 29.4 26.23L19.7 26.23C19.45 26.23 19.23 26.15 19.04 26.01C18.85 25.87 18.74 25.67 18.69 25.42L17.19 18.11L31.79 18.11L30.39 25.42Z" fill="url(#paint_linear_2_114_0)" fill-opacity="1.000000" fill-rule="nonzero"/>
</svg>
