<svg width="45.000000" height="45.000000" viewBox="0 0 45 45" fill="none" xmlns="http://www.w3.org/2000/svg" xmlns:xlink="http://www.w3.org/1999/xlink">
	<desc>
			Created with Pixso.
	</desc>
	<defs>
		<linearGradient x1="30.527922" y1="15.053978" x2="12.071068" y2="31.269882" id="paint_linear_2_118_0" gradientUnits="userSpaceOnUse">
			<stop stop-color="#F4B83F"/>
			<stop offset="1.000000" stop-color="#F7D046"/>
		</linearGradient>
	</defs>
	<g opacity="0.300000">
		<rect id="Rectangle 39737" x="0.000002" rx="22.500000" width="45.000000" height="45.000000" fill="#F4F4F4" fill-opacity="1.000000"/>
	</g>
	<path id="Vector" d="M29.19 13.27L29.19 11L14.8 11L14.8 13.41L29.19 13.41L29.19 13.27ZM30.51 14.59L12.41 14.59L12.41 17.01L31.58 17.01L31.58 14.59L30.51 14.59ZM32.9 18.19L10 18.19L10 32.58L34 32.58L34 18.19L32.9 18.19ZM32.67 19.51L32.67 21.67L31.58 21.67Q31.38 21.67 31.2 21.61Q31 21.53 30.83 21.36Q30.66 21.19 30.58 20.98Q30.51 20.81 30.51 20.61L30.51 19.51L32.67 19.51ZM13.48 19.51L11.32 19.51L11.32 21.67L12.41 21.67Q12.61 21.67 12.79 21.61Q12.99 21.53 13.16 21.36Q13.33 21.19 13.41 20.98Q13.48 20.81 13.48 20.61L13.48 19.51ZM11.32 29.12L11.32 31.26L13.48 31.26L13.48 30.19Q13.48 29.99 13.41 29.81Q13.33 29.61 13.16 29.44Q12.99 29.27 12.79 29.19Q12.61 29.12 12.41 29.12L11.32 29.12ZM30.51 31.26L32.67 31.26L32.67 29.12L31.58 29.12Q31.38 29.12 31.2 29.19Q31 29.27 30.83 29.44Q30.66 29.61 30.58 29.81Q30.51 29.99 30.51 30.19L30.51 31.26ZM23.02 21.93C23.59 22.09 24.09 22.39 24.54 22.84C25.24 23.54 25.59 24.39 25.59 25.38C25.59 26.38 25.24 27.22 24.54 27.93C24.06 28.4 23.52 28.71 22.92 28.87C22.63 28.94 22.32 28.98 22 28.98C21.67 28.98 21.36 28.94 21.07 28.87C20.47 28.71 19.93 28.4 19.45 27.93C18.75 27.22 18.4 26.38 18.4 25.38C18.4 24.39 18.75 23.54 19.45 22.84C19.9 22.39 20.4 22.09 20.97 21.93C21.29 21.83 21.63 21.79 22 21.79C22.36 21.79 22.7 21.83 23.02 21.93ZM20.78 20.61L29.19 20.61C29.19 21.26 29.42 21.82 29.89 22.29C30.36 22.76 30.92 22.99 31.58 23L31.58 23L31.58 27.8C30.92 27.8 30.36 28.04 29.89 28.5C29.42 28.97 29.19 29.53 29.19 30.19L14.8 30.19C14.8 29.53 14.57 28.97 14.1 28.5C13.63 28.04 13.07 27.8 12.41 27.8L12.41 23L12.41 23C13.07 22.99 13.63 22.76 14.1 22.29C14.57 21.82 14.8 21.26 14.8 20.61L20.78 20.61ZM24.11 26.25Q23.94 26.66 23.6 26.99Q23.27 27.33 22.87 27.5Q22.46 27.66 22 27.66Q21.53 27.66 21.12 27.5Q20.72 27.33 20.39 26.99Q20.05 26.66 19.88 26.25Q19.72 25.85 19.72 25.38Q19.72 24.91 19.88 24.51Q20.05 24.11 20.39 23.77Q20.72 23.44 21.12 23.27Q21.53 23.11 22 23.11Q22.46 23.11 22.87 23.27Q23.27 23.44 23.6 23.77Q23.94 24.11 24.11 24.51Q24.27 24.91 24.27 25.38Q24.27 25.85 24.11 26.25Z" fill="url(#paint_linear_2_118_0)" fill-opacity="1.000000" fill-rule="evenodd"/>
</svg>
