<svg width="45.000000" height="45.000000" viewBox="0 0 45 45" fill="none" xmlns="http://www.w3.org/2000/svg" xmlns:xlink="http://www.w3.org/1999/xlink">
	<desc>
			Created with Pixso.
	</desc>
	<defs>
		<linearGradient x1="29.527924" y1="15.568781" x2="11.071070" y2="29.843914" id="paint_linear_2_48_0" gradientUnits="userSpaceOnUse">
			<stop stop-color="#F4B83F"/>
			<stop offset="1.000000" stop-color="#F7D046"/>
		</linearGradient>
	</defs>
	<g opacity="0.300000">
		<rect id="Rectangle 39735" rx="22.500000" width="45.000000" height="45.000000" fill="#F4F4F4" fill-opacity="1.000000"/>
	</g>
	<path id="Vector" d="M33 12L33 31L9.37 31C9.18 31 9.06 30.94 9.02 30.83C8.97 30.72 9 30.59 9.11 30.44L14.48 23.62C14.6 23.46 14.75 23.38 14.93 23.36C15.11 23.35 15.28 23.41 15.44 23.55L17.13 25.13C17.27 25.25 17.43 25.3 17.61 25.28C17.79 25.25 17.92 25.16 18.02 25.01L21.67 19.37C21.78 19.22 21.92 19.13 22.1 19.11C22.27 19.08 22.42 19.14 22.56 19.28L25.19 21.76C25.31 21.9 25.46 21.96 25.63 21.94C25.81 21.91 25.95 21.82 26.06 21.65L32.2 12.39C32.31 12.22 32.43 12.11 32.56 12.06C32.69 12.02 32.84 12 33 12Z" fill="#000000" fill-opacity="1.000000" fill-rule="nonzero"/>
	<path id="Vector" d="M33 12L33 31L9.37 31C9.18 31 9.06 30.94 9.02 30.83C8.97 30.72 9 30.59 9.11 30.44L14.48 23.62C14.6 23.46 14.75 23.38 14.93 23.36C15.11 23.35 15.28 23.41 15.44 23.55L17.13 25.13C17.27 25.25 17.43 25.3 17.61 25.28C17.79 25.25 17.92 25.16 18.02 25.01L21.67 19.37C21.78 19.22 21.92 19.13 22.1 19.11C22.27 19.08 22.42 19.14 22.56 19.28L25.19 21.76C25.31 21.9 25.46 21.96 25.63 21.94C25.81 21.91 25.95 21.82 26.06 21.65L32.2 12.39C32.31 12.22 32.43 12.11 32.56 12.06C32.69 12.02 32.84 12 33 12Z" fill="url(#paint_linear_2_48_0)" fill-opacity="1.000000" fill-rule="nonzero"/>
</svg>
