<svg width="45.000000" height="45.000000" viewBox="0 0 45 45" fill="none" xmlns="http://www.w3.org/2000/svg" xmlns:xlink="http://www.w3.org/1999/xlink">
	<desc>
			Created with Pixso.
	</desc>
	<defs>
		<linearGradient x1="29.961926" y1="16.276474" x2="13.812183" y2="32.054253" id="paint_linear_2_109_0" gradientUnits="userSpaceOnUse">
			<stop stop-color="#F4B83F"/>
			<stop offset="1.000000" stop-color="#F7D046"/>
		</linearGradient>
		<linearGradient x1="26.881308" y1="11.031666" x2="25.345150" y2="14.537839" id="paint_linear_2_110_0" gradientUnits="userSpaceOnUse">
			<stop stop-color="#F4B83F"/>
			<stop offset="1.000000" stop-color="#F7D046"/>
		</linearGradient>
		<linearGradient x1="17.544760" y1="11.031666" x2="16.008604" y2="14.537839" id="paint_linear_2_111_0" gradientUnits="userSpaceOnUse">
			<stop stop-color="#F4B83F"/>
			<stop offset="1.000000" stop-color="#F7D046"/>
		</linearGradient>
		<linearGradient x1="29.279953" y1="19.708206" x2="13.130208" y2="21.208984" id="paint_linear_2_112_0" gradientUnits="userSpaceOnUse">
			<stop stop-color="#F4B83F"/>
			<stop offset="1.000000" stop-color="#F7D046"/>
		</linearGradient>
	</defs>
	<g opacity="0.300000">
		<rect id="Rectangle 39733" rx="22.500000" width="45.000000" height="45.000000" fill="#F4F4F4" fill-opacity="1.000000"/>
	</g>
	<path id="Vector" d="M30.66 12.33C31.95 12.33 33 13.37 33 14.66L33 30.99C33 32.28 31.95 33.33 30.66 33.33L14.33 33.33C13.04 33.33 12 32.28 12 30.99L12 14.66C12 13.37 13.04 12.33 14.33 12.33L30.66 12.33Z" stroke="#00FD00" stroke-opacity="1.000000" stroke-width="1.997511" stroke-linejoin="round"/>
	<path id="Vector" d="M30.66 12.33C31.95 12.33 33 13.37 33 14.66L33 30.99C33 32.28 31.95 33.33 30.66 33.33L14.33 33.33C13.04 33.33 12 32.28 12 30.99L12 14.66C12 13.37 13.04 12.33 14.33 12.33L30.66 12.33Z" stroke="url(#paint_linear_2_109_0)" stroke-opacity="1.000000" stroke-width="1.997511" stroke-linejoin="round"/>
	<path id="Vector" d="M27.17 10L27.17 14.66" stroke="#00FD00" stroke-opacity="1.000000" stroke-width="1.997511" stroke-linejoin="round" stroke-linecap="round"/>
	<path id="Vector" d="M27.17 10L27.17 14.66" stroke="url(#paint_linear_2_110_0)" stroke-opacity="1.000000" stroke-width="1.997511" stroke-linejoin="round" stroke-linecap="round"/>
	<path id="Vector" d="M17.83 10L17.83 14.66" stroke="#00FD00" stroke-opacity="1.000000" stroke-width="1.997511" stroke-linejoin="round" stroke-linecap="round"/>
	<path id="Vector" d="M17.83 10L17.83 14.66" stroke="url(#paint_linear_2_111_0)" stroke-opacity="1.000000" stroke-width="1.997511" stroke-linejoin="round" stroke-linecap="round"/>
	<path id="Vector" d="M12 19.33L33 19.33" stroke="#00FD00" stroke-opacity="1.000000" stroke-width="1.997511" stroke-linejoin="round" stroke-linecap="round"/>
	<path id="Vector" d="M12 19.33L33 19.33" stroke="url(#paint_linear_2_112_0)" stroke-opacity="1.000000" stroke-width="1.997511" stroke-linejoin="round" stroke-linecap="round"/>
</svg>
