<svg width="45.000000" height="45.000000" viewBox="0 0 45 45" fill="none" xmlns="http://www.w3.org/2000/svg" xmlns:xlink="http://www.w3.org/1999/xlink">
	<desc>
			Created with Pixso.
	</desc>
	<defs>
		<linearGradient x1="31.826614" y1="13.507931" x2="11.302983" y2="31.539682" id="paint_linear_2_124_0" gradientUnits="userSpaceOnUse">
			<stop stop-color="#F4B83F"/>
			<stop offset="1.000000" stop-color="#F7D046"/>
		</linearGradient>
	</defs>
	<g opacity="0.300000">
		<rect id="Rectangle 39737" rx="22.500000" width="45.000000" height="45.000000" fill="#F4F4F4" fill-opacity="1.000000"/>
	</g>
	<path id="Vector" d="M22.34 18.65L22.34 10.34C22.34 9.96 22.21 9.65 21.95 9.39C21.69 9.13 21.37 9 21 9L10.34 9C9.96 9 9.65 9.13 9.39 9.39C9.13 9.65 9 9.96 9 10.34L9 31.65C9 32.03 9.13 32.34 9.39 32.6C9.65 32.86 9.96 33 10.34 33L34.34 33C34.71 33 35.03 32.86 35.29 32.6C35.55 32.34 35.68 32.03 35.68 31.65L35.68 15.65C35.68 15.3 35.55 14.99 35.29 14.73C35.03 14.47 34.71 14.34 34.34 14.34L26.34 14.34C25.96 14.34 25.65 14.47 25.39 14.73C25.13 14.99 25 15.3 25 15.65L25 19.65L22.34 19.65L22.34 18.65ZM26.17 15.38Q26.25 15.34 26.34 15.34L34.34 15.34Q34.43 15.34 34.5 15.38Q34.55 15.4 34.58 15.44Q34.66 15.51 34.68 15.6Q34.68 15.62 34.68 15.65L34.68 31.65Q34.68 31.74 34.65 31.82Q34.62 31.86 34.58 31.9Q34.55 31.93 34.5 31.96Q34.43 32 34.34 32L10.34 32Q10.25 32 10.17 31.96Q10.13 31.93 10.09 31.9Q10.06 31.86 10.03 31.82Q10 31.74 10 31.65L10 10.34Q10 10.25 10.03 10.17Q10.06 10.13 10.09 10.09Q10.13 10.06 10.17 10.03Q10.25 10 10.34 10L21 10Q21.09 10 21.16 10.03Q21.2 10.06 21.24 10.09Q21.28 10.13 21.3 10.17Q21.34 10.25 21.34 10.34L21.34 20.65L26 20.65L26 15.65Q26 15.62 26 15.6Q26.02 15.51 26.09 15.44Q26.13 15.4 26.17 15.38ZM10.68 12L10.68 16.65L15.34 16.65L15.34 12L10.68 12ZM20.68 16.65L20.68 12L16 12L16 16.65L20.68 16.65ZM11.68 14.65L11.68 15.65L14.34 15.65L14.34 13L11.68 13L11.68 14.65ZM19.68 13L17 13L17 15.65L19.68 15.65L19.68 13ZM10.68 17.34L10.68 22L15.34 22L15.34 17.34L10.68 17.34ZM16 17.34L16 22L20.68 22L20.68 17.34L16 17.34ZM28 17.34L28 22L32.68 22L32.68 17.34L28 17.34ZM11.68 20L11.68 18.34L14.34 18.34L14.34 21L11.68 21L11.68 20ZM17 20L17 18.34L19.68 18.34L19.68 21L17 21L17 20ZM29 20L29 18.34L31.68 18.34L31.68 21L29 21L29 20ZM10.68 22.65L10.68 27.34L15.34 27.34L15.34 22.65L10.68 22.65ZM16 22.65L16 27.34L20.68 27.34L20.68 22.65L16 22.65ZM28 22.65L28 27.34L32.68 27.34L32.68 22.65L28 22.65ZM11.68 25.34L11.68 23.65L14.34 23.65L14.34 26.34L11.68 26.34L11.68 25.34ZM17 25.34L17 23.65L19.68 23.65L19.68 26.34L17 26.34L17 25.34ZM29 25.34L29 23.65L31.68 23.65L31.68 26.34L29 26.34L29 25.34Z" fill="url(#paint_linear_2_124_0)" fill-opacity="1.000000" fill-rule="evenodd"/>
</svg>
