<svg width="28.012238" height="25.585938" viewBox="0 0 28.0122 25.5859" fill="none" xmlns="http://www.w3.org/2000/svg" xmlns:xlink="http://www.w3.org/1999/xlink">
	<desc>
			Created with Pixso.
	</desc>
	<defs/>
	<g opacity="0.500000">
		<path id="Vector 180" d="M25.48 10.43L25.48 10.4C26.1 9.83 27.03 9.87 27.6 10.48C28.17 11.1 28.14 12.03 27.52 12.6L27.49 12.6L25.48 10.43ZM0.47 12.57L0.44 12.57C-0.15 11.97 -0.16 11.04 0.44 10.44C1.03 9.85 1.96 9.85 2.56 10.44L2.56 10.47L0.47 12.57Z" fill="#F67F11" fill-opacity="1.000000" fill-rule="nonzero"/>
		<path id="Vector 180" d="M26.5 11.5L13.58 23.5L1.5 11.5" stroke="#FFD001" stroke-opacity="1.000000" stroke-width="3.000000" stroke-linecap="round"/>
	</g>
	<path id="Vector 181" d="M25.48 0.43L25.48 0.4C26.1 -0.17 27.03 -0.13 27.6 0.48C28.17 1.1 28.14 2.03 27.52 2.6L27.49 2.6L25.48 0.43ZM0.47 2.57L0.44 2.57C-0.15 1.97 -0.16 1.04 0.44 0.44C1.03 -0.15 1.96 -0.15 2.56 0.44L2.56 0.47L0.47 2.57Z" fill="#F67F11" fill-opacity="1.000000" fill-rule="nonzero"/>
	<path id="Vector 181" d="M26.5 1.5L13.58 13.5L1.5 1.5" stroke="#FFD001" stroke-opacity="1.000000" stroke-width="3.000000" stroke-linecap="round"/>
</svg>
