<svg width="139.441818" height="55.000000" viewBox="0 0 139.442 55" fill="none" xmlns="http://www.w3.org/2000/svg" xmlns:xlink="http://www.w3.org/1999/xlink">
	<desc>
			Created with Pixso.
	</desc>
	<defs>
		<clipPath id="clip1_515">
			<rect id="_Слой_1" rx="-0.500000" width="138.441818" height="54.000000" transform="translate(0.500000 0.500000)" fill="white" fill-opacity="0"/>
		</clipPath>
		<linearGradient x1="69.504639" y1="42.866516" x2="69.504639" y2="31.531712" id="paint_linear_1_521_0" gradientUnits="userSpaceOnUse">
			<stop stop-color="#FFD000"/>
			<stop offset="1.000000" stop-color="#F9F194"/>
		</linearGradient>
		<linearGradient x1="69.721169" y1="13.813907" x2="69.721169" y2="-2.060087" id="paint_linear_1_527_0" gradientUnits="userSpaceOnUse">
			<stop stop-color="#FFD000"/>
			<stop offset="1.000000" stop-color="#FCF4AB"/>
		</linearGradient>
	</defs>
	<rect id="_Слой_1" rx="-0.500000" width="138.441818" height="54.000000" transform="translate(0.500000 0.500000)" fill="#FFFFFF" fill-opacity="0"/>
	<g clip-path="url(#clip1_515)">
		<path id="Vector" d="M110.02 48.94L116.27 37.76C116.69 37.01 116.64 35.87 116.01 35.25C115.24 34.49 114.21 34.73 113.39 35.27C110.86 36.93 108.32 38.59 105.78 40.26C102.89 42.15 99.98 44.02 97.11 45.95L96.89 46.1C96.62 46.29 96.28 46.28 96.03 46.06L95.81 45.87C91.4 41.98 86.74 38.48 81.46 35.83C74.71 32.45 67.54 30.75 59.99 30.73C53.68 30.71 47.01 32.31 41.3 34.97C33.67 38.53 27.48 44.09 23.35 51.46C22.81 52.42 22.6 53.6 23.5 54.42C23.79 54.69 24.15 54.85 24.55 54.93C24.87 55 25.18 55 25.5 54.99L111.68 54.99C113.67 54.99 114.36 52.72 112.75 51.48C112.32 51.15 111.89 50.81 111.46 50.47C111.14 50.22 110.81 49.96 110.49 49.71C110.34 49.6 110.13 49.44 110.06 49.37C109.91 49.22 109.94 49.07 110.01 48.93L110.02 48.94Z" fill="#000003" fill-opacity="1.000000" fill-rule="evenodd"/>
		<mask id="mask1_518" mask-type="alpha" maskUnits="userSpaceOnUse" x="24.245117" y="32.076172" width="90.950333" height="21.571350">
			<path id="Vector" d="M36.73 44.65C37.94 44.65 38.93 45.64 38.93 46.86C38.93 48.07 37.94 49.06 36.73 49.06C35.51 49.06 34.53 48.08 34.53 46.86C34.53 45.64 35.51 44.65 36.73 44.65ZM115.09 37.1L108.5 48.87C108.37 49.11 108.36 49.64 108.61 49.89C108.86 50.14 110.8 51.68 111.93 52.55C112.69 53.14 112.17 53.64 111.68 53.64L55.09 53.64L54.92 51.48C60.84 51.09 66.76 50.7 72.68 50.31C73.63 50.25 73.55 49.91 72.68 49.91L54.58 49.63L54.2 48.16C58.75 47.78 63.3 47.44 67.85 47.03C68.38 46.98 68.45 46.61 67.59 46.59L53.38 46.27L52.56 44.76C55.77 44.52 58.97 44.19 62.18 44.04C63.15 43.99 63.3 43.58 62.13 43.55L51.23 43.32C50.62 42.62 49.58 41.73 48.26 41.06C48.01 40.94 48.06 41.12 48.15 41.2C52.23 44.53 52.86 48.66 52.93 53.64L25.5 53.64C25.21 53.64 23.58 53.82 24.53 52.11C33.34 36.38 50.16 31.96 59.99 32.07C76.46 32.03 87.44 40.24 95.21 47.12C95.81 47.66 96.9 47.72 97.75 47.14C98.61 46.57 110.29 38.91 114.13 36.39C115.42 35.55 115.23 36.85 115.09 37.1L115.09 37.1Z" fill="#000000" fill-opacity="1.000000" fill-rule="nonzero"/>
		</mask>
		<g mask="url(#mask1_518)">
			<path id="Vector" d="M23.58 31.97L115.42 31.97L115.42 53.82L23.58 53.82L23.58 31.97Z" fill="url(#paint_linear_1_521_0)" fill-opacity="1.000000" fill-rule="evenodd"/>
			<circle id="Ellipse 5" cx="39.041016" cy="48.000000" r="2.000000" fill="#000003" fill-opacity="1.000000"/>
		</g>
		<path id="Vector" d="M27.06 17.64C27.06 16.6 26.94 15.3 26.42 14.37C26.07 13.73 25.61 13.38 24.87 13.38C24.04 13.38 23.53 13.75 23.12 14.46C22.62 15.36 22.49 16.53 22.49 17.54C22.49 18.56 22.63 19.61 23.2 20.42C23.61 21 24.13 21.23 24.84 21.23C25.34 21.23 25.83 21.14 26.19 20.78C26.93 20.04 27.06 18.62 27.06 17.64L27.06 17.64ZM6.04 14.2L6.04 21.06L9.61 21.06C10.17 21.06 10.78 20.96 11.12 20.48C11.38 20.11 11.45 19.65 11.45 19.22C11.45 17.78 10.64 16.67 9.57 15.78C8.51 14.9 7.33 14.39 6.04 14.2L6.04 14.2ZM10.28 9.74C10.29 9.72 10.29 9.7 10.3 9.68C10.39 9.43 10.45 9.17 10.45 8.9C10.45 8.83 10.44 8.63 10.4 8.54C10.34 8.52 10.24 8.52 10.19 8.52L6.04 8.52L6.04 8.54C6.96 8.63 7.86 8.83 8.74 9.12C9.25 9.29 9.77 9.51 10.28 9.74L10.28 9.74ZM72.9 13.86C72.95 13.84 73.01 13.83 73.06 13.81C73.22 13.77 73.38 13.72 73.54 13.68C73.46 13.48 73.37 13.27 73.28 13.06C73.28 13.06 73.28 13.06 73.28 13.06C73.15 13.32 73.02 13.59 72.9 13.86ZM37.89 14.44L37.84 15.74C37.84 17.09 37.97 18.9 38.67 20.1C39.07 20.78 39.57 21.22 40.38 21.22C41.06 21.22 41.5 20.92 41.86 20.36C42.43 19.46 42.57 18.24 42.57 17.21C42.57 16.31 42.39 15.45 41.91 14.68C41.51 14.04 41.01 13.68 40.24 13.68C39.71 13.68 39.1 13.88 38.62 14.09L38.6 14.1C38.35 14.2 38.12 14.31 37.89 14.44L37.89 14.44ZM119.39 19.72C119.65 19.85 119.92 19.9 120.21 19.9C120.49 19.9 120.76 19.81 121 19.65C121.39 19.4 121.76 19.12 122.1 18.8C122.43 18.49 122.77 18.18 123.1 17.86C123.17 17.79 123.25 17.72 123.33 17.65C122.94 17.88 122.53 18.08 122.11 18.25C121.56 18.47 121.02 18.69 120.48 18.93C120.12 19.09 119.76 19.29 119.45 19.53C119.39 19.58 119.38 19.62 119.38 19.71C119.38 19.71 119.38 19.72 119.38 19.73L119.39 19.72ZM104.62 19.72C104.88 19.85 105.15 19.9 105.44 19.9C105.73 19.9 105.99 19.81 106.23 19.65C106.62 19.4 106.99 19.12 107.33 18.8C107.67 18.49 108.01 18.18 108.33 17.86C108.41 17.79 108.49 17.72 108.57 17.65C108.18 17.88 107.77 18.08 107.34 18.25C106.8 18.47 106.25 18.69 105.72 18.93C105.36 19.09 105 19.29 104.69 19.53C104.63 19.58 104.62 19.62 104.62 19.71C104.62 19.71 104.62 19.72 104.62 19.73L104.62 19.72ZM110.7 15.69C110.31 16.27 109.84 16.78 109.28 17.19C109.24 17.22 109.2 17.25 109.16 17.27C109.41 17.16 109.68 17.09 109.96 17.09C110.23 17.09 110.47 17.15 110.67 17.27C110.67 17.13 110.66 16.98 110.66 16.83C110.66 16.45 110.67 16.07 110.7 15.69ZM125.42 15.75C125.04 16.31 124.58 16.79 124.04 17.19C124 17.22 123.96 17.24 123.92 17.27C124.17 17.15 124.44 17.08 124.73 17.08C125.01 17.08 125.24 17.15 125.44 17.27C125.43 16.77 125.42 16.26 125.42 15.75L125.42 15.75ZM32.65 21.13C32.28 22.35 31.67 23.49 30.76 24.49C29.15 26.25 27.09 27.1 24.71 27.1C22.33 27.1 20.21 26.16 18.66 24.26C18.07 23.53 17.61 22.75 17.27 21.93C16.99 22.8 16.56 23.63 15.98 24.38C14.55 26.24 12.57 27.1 10.24 27.1L3.51 27.1C2.47 27.1 1.43 26.82 0.77 25.96C0.2 25.22 0 24.3 0 23.38L0 6.19C0 5.25 0.24 4.36 0.84 3.62C1.46 2.87 2.29 2.47 3.26 2.47L10.6 2.47C12.18 2.47 13.65 2.94 14.8 4.06C15.98 5.21 16.44 6.73 16.44 8.36C16.44 9.98 15.98 11.58 15.03 12.89C15.69 13.54 16.23 14.28 16.66 15.11C16.94 13.58 17.5 12.13 18.43 10.82C20 8.61 22.2 7.52 24.9 7.52C27.38 7.52 29.44 8.5 30.95 10.48C31.34 10.98 31.66 11.51 31.94 12.07C32.22 9.15 33.01 6.11 34.94 4.1C36.32 2.67 38.09 1.98 40.05 1.83C40.27 1.81 40.49 1.82 40.7 1.8C41.32 1.78 42.04 1.64 42.46 1.14C42.5 1.1 42.54 1.05 42.57 1.01C43.04 0.33 43.55 -0.01 44.41 -0.01L46.76 -0.01C48.15 -0.01 48.83 1.12 48.3 2.35C47.86 3.43 47.25 4.46 46.43 5.3C44.84 6.96 42.71 7.55 40.47 7.61C39.92 7.62 39.4 7.76 39.01 8.15C39.56 8.01 40.12 7.94 40.68 7.94C42.96 7.94 44.88 8.84 46.38 10.55C48.03 12.43 48.62 14.81 48.62 17.26C48.62 17.51 48.61 17.75 48.6 18C48.92 16.69 49.31 15.39 49.8 14.13C50.44 12.45 51.35 10.54 52.66 9.28C53.1 8.85 53.6 8.47 54.17 8.24C54.74 8 55.38 7.93 56 7.93L56.36 7.93C56.98 7.93 57.62 8 58.19 8.24C58.76 8.47 59.27 8.85 59.71 9.28C61.02 10.54 61.93 12.45 62.57 14.13C63.28 16 63.8 17.95 64.2 19.92C64.36 20.75 64.54 21.66 64.64 22.56C64.64 22.55 64.65 22.53 64.65 22.51C65.11 19.72 66.07 16.87 67.07 14.23C67.61 12.82 68.18 11.41 68.83 10.05C69.31 9.07 69.84 8.07 70.47 7.18C70.74 6.79 71.08 6.37 71.47 6.09C72.02 5.7 72.65 5.52 73.33 5.52C74.04 5.52 74.71 5.71 75.27 6.15C75.64 6.44 75.95 6.85 76.21 7.24C77.9 9.77 79.12 13.2 80.04 16.1C80.27 16.84 80.5 17.58 80.71 18.33C80.71 18.18 80.71 18.04 80.71 17.9C80.71 16.92 80.74 15.94 80.79 14.96C80.85 14.05 80.91 13.15 80.98 12.24C81.06 11.28 81.12 10.31 81.16 9.35C81.22 8.18 81.24 7.02 81.24 5.86C81.24 4.89 81.33 3.76 81.79 2.89C82.32 1.87 83.34 1.47 84.44 1.47L88.02 1.47C88.81 1.47 89.71 1.59 90.23 2.24C90.61 2.7 90.76 3.27 90.76 3.86C90.76 4.26 90.68 4.65 90.54 5.03C90.43 5.34 90.31 5.64 90.18 5.95C90.07 6.22 89.97 6.5 89.88 6.78C89.86 6.86 89.84 6.93 89.82 7.01C90.24 6.88 90.68 6.84 91.11 6.84C92 6.84 92.85 7.06 93.63 7.5C94.4 7.95 95.03 8.57 95.53 9.3C96.06 10.09 96.43 10.97 96.68 11.88C96.68 11.91 96.69 11.94 96.7 11.97C97.11 10.92 97.68 9.93 98.45 9.1C99.25 8.23 100.2 7.56 101.29 7.12C102.37 6.68 103.51 6.48 104.67 6.48C105.57 6.48 106.45 6.61 107.3 6.9C108.1 7.18 108.85 7.58 109.49 8.14C110.12 8.68 110.62 9.32 110.99 10.07C111.27 10.64 111.44 11.25 111.51 11.88C111.92 10.86 112.47 9.91 113.22 9.1C114.02 8.23 114.97 7.56 116.07 7.12C117.15 6.69 118.28 6.48 119.44 6.48C120.34 6.48 121.22 6.61 122.07 6.91C122.87 7.18 123.61 7.59 124.26 8.14C124.74 8.55 125.15 9.03 125.48 9.57C125.56 9.01 125.72 8.46 126.03 8.04C126.67 7.15 127.85 6.97 128.86 6.97L131.3 6.97C131.86 6.97 132.38 7.18 132.74 7.61C132.74 7.62 132.74 7.62 132.75 7.63C133.02 7.32 133.34 7.05 133.68 6.82C134.25 6.43 134.93 6.29 135.62 6.29C136.78 6.29 137.82 6.71 138.52 7.65C139.18 8.53 139.43 9.59 139.43 10.67C139.43 11.84 139.17 13.03 138.32 13.89C137.66 14.55 136.84 15.02 135.88 15.02C135.31 15.02 134.81 14.77 134.46 14.32C134.34 14.16 134.22 13.99 134.11 13.82C133.92 14.49 133.89 15.37 133.89 16.03C133.89 16.6 133.94 17.18 134.03 17.74C134.14 18.41 134.27 19.08 134.39 19.75C134.54 20.51 134.67 21.28 134.77 22.06C134.89 22.92 134.94 23.8 134.94 24.67C134.94 25.55 134.58 26.32 133.9 26.87C133.27 27.39 132.51 27.64 131.69 27.61C131.23 27.61 130.79 27.5 130.39 27.26C130.19 27.13 129.99 27.01 129.78 26.89C129.61 26.78 129.42 26.69 129.22 26.61C129.05 26.55 128.81 26.53 128.63 26.53C127.74 26.53 127.01 26.1 126.53 25.36C126.12 24.72 125.91 23.82 125.79 23.02C125.45 23.73 125.01 24.37 124.47 24.95C123.77 25.71 122.92 26.28 121.97 26.7C120.91 27.17 119.75 27.35 118.59 27.35C117.36 27.35 116.16 27.08 115.09 26.46C114.08 25.87 113.25 25.07 112.59 24.1C112.12 23.4 111.75 22.64 111.46 21.84C111.4 22.07 111.32 22.3 111.23 22.53C110.88 23.43 110.36 24.24 109.71 24.95C109 25.7 108.15 26.28 107.2 26.7C106.14 27.17 104.98 27.35 103.82 27.35C102.59 27.35 101.4 27.08 100.32 26.46C99.31 25.87 98.48 25.07 97.83 24.1C97.14 23.09 96.68 21.96 96.37 20.78C96.37 20.78 96.37 20.78 96.37 20.77C96.08 21.77 95.69 22.73 95.17 23.61C93.78 25.95 91.61 27.09 88.89 27.09C88.02 27.09 87.14 27 86.28 26.8C85.59 26.63 84.87 26.57 84.16 26.57C83.29 26.57 82.57 26.14 82.07 25.43C81.96 25.26 81.86 25.09 81.77 24.92C81.66 25.47 81.41 25.98 80.97 26.37C80.43 26.85 79.76 27.09 79.04 27.09C78.31 27.09 77.63 26.88 77.12 26.36C76.63 25.86 76.4 25.19 76.28 24.52C76.08 23.42 75.88 22.33 75.69 21.24C75.54 20.37 75.34 19.51 75.08 18.66C73.97 18.81 72.99 19.25 72.11 20.03C71.05 20.97 70.47 22.16 70.24 23.55L70.07 24.57C69.93 25.39 69.58 26.15 68.88 26.63C68.43 26.95 67.89 27.09 67.34 27.09C66.6 27.09 65.92 26.86 65.4 26.33C64.99 25.92 64.76 25.41 64.64 24.86C64.52 25.41 64.25 25.91 63.82 26.32L63.8 26.34C63.26 26.83 62.58 27.06 61.85 27.06C61.07 27.06 60.37 26.77 59.84 26.21C59.29 25.63 59.05 24.84 58.94 24.06C58.75 22.64 58.54 21.19 58.25 19.78C57.92 18.21 57.46 16.65 56.81 15.19C56.68 14.9 56.42 14.35 56.18 14.02C55.94 14.35 55.68 14.9 55.55 15.19C54.9 16.65 54.44 18.21 54.11 19.78C53.82 21.19 53.61 22.64 53.42 24.06C53.31 24.84 53.07 25.62 52.52 26.21C51.99 26.77 51.29 27.06 50.51 27.06C49.78 27.06 49.1 26.83 48.56 26.34L48.54 26.32C47.89 25.72 47.62 24.9 47.62 24.03C47.62 23.29 47.71 22.51 47.83 21.73C47.53 22.49 47.14 23.22 46.65 23.91C45.13 26 43.01 27.07 40.43 27.07C37.7 27.07 35.47 25.98 33.93 23.72C33.38 22.92 32.96 22.04 32.64 21.12L32.65 21.13Z" fill="#000003" fill-opacity="1.000000" fill-rule="evenodd"/>
		<mask id="mask1_524" mask-type="alpha" maskUnits="userSpaceOnUse" x="1.176758" y="1.175781" width="137.091751" height="25.273254">
			<path id="Vector" d="M31.93 17.77C31.93 20.23 31.25 22.2 29.89 23.69C28.53 25.18 26.81 25.92 24.7 25.92C22.6 25.92 20.88 25.12 19.57 23.52C18.27 21.91 17.62 19.95 17.62 17.61C17.62 15.27 18.21 13.15 19.38 11.5C20.7 9.63 22.54 8.7 24.9 8.7C27.03 8.7 28.74 9.53 30.01 11.2C31.29 12.86 31.93 15.05 31.93 17.77ZM16.51 19.08C16.51 20.87 16.02 22.39 15.04 23.67C13.89 25.18 12.28 25.93 10.24 25.93L3.51 25.93C2.66 25.93 2.06 25.7 1.7 25.24C1.35 24.79 1.17 24.17 1.17 23.38L1.17 6.19C1.17 5.45 1.36 4.84 1.75 4.36C2.14 3.89 2.65 3.65 3.26 3.65L10.59 3.65C11.99 3.65 13.11 4.07 13.97 4.9C14.83 5.74 15.26 6.89 15.26 8.36C15.26 10.2 14.63 11.76 13.36 13.04C14.32 13.71 15.09 14.62 15.66 15.74C16.23 16.86 16.51 17.98 16.51 19.08L16.51 19.08ZM11.63 8.9C11.63 8.26 11.44 7.82 11.08 7.56C10.86 7.41 10.57 7.34 10.19 7.34L4.87 7.34L4.87 9.66C6.06 9.66 7.23 9.85 8.37 10.24C8.82 10.39 9.57 10.7 10.62 11.19C11 10.85 11.27 10.48 11.41 10.08C11.55 9.67 11.63 9.28 11.63 8.9ZM12.63 19.21C12.63 17.6 11.86 16.15 10.32 14.87C8.78 13.58 6.97 12.94 4.87 12.94L4.87 22.24L9.62 22.24C10.75 22.24 11.58 21.88 12.09 21.15C12.45 20.64 12.63 20 12.63 19.21L12.63 19.21ZM65.82 22.71C65.78 22.88 65.76 23.07 65.74 23.28C65.73 23.5 65.72 23.68 65.72 23.83C65.72 24.61 65.89 25.17 66.24 25.51C66.5 25.79 66.87 25.92 67.34 25.92C67.69 25.92 67.97 25.84 68.21 25.68C68.57 25.42 68.8 24.99 68.91 24.37L69.08 23.36C69.36 21.64 70.11 20.24 71.33 19.15C72.62 18.01 74.14 17.44 75.91 17.44C76.3 18.51 76.62 19.71 76.85 21.04C77.09 22.37 77.28 23.46 77.44 24.31C77.53 24.88 77.7 25.28 77.95 25.54C78.21 25.79 78.57 25.92 79.03 25.92C79.5 25.92 79.87 25.78 80.18 25.5C80.5 25.22 80.66 24.79 80.66 24.23C80.66 22.69 80.08 20.1 78.92 16.46C77.7 12.6 76.47 9.75 75.23 7.9C74.98 7.52 74.75 7.25 74.55 7.08C74.22 6.83 73.81 6.7 73.33 6.7C72.87 6.7 72.48 6.82 72.15 7.06C71.95 7.2 71.71 7.47 71.43 7.87C70.47 9.21 69.39 11.47 68.17 14.65C66.96 17.83 66.18 20.52 65.82 22.71L65.82 22.71ZM70.63 16.52C70.91 15.59 71.26 14.67 71.66 13.75C72.16 12.61 72.72 11.54 73.33 10.54C73.75 11.3 74.1 11.98 74.36 12.59C74.63 13.2 74.89 13.89 75.14 14.67C74.59 14.67 74.01 14.76 73.4 14.94C72.38 15.25 71.46 15.77 70.63 16.52ZM56.18 12.62C55.94 12.69 55.72 12.81 55.53 13C55.21 13.29 54.86 13.87 54.48 14.72C53.83 16.18 53.32 17.79 52.96 19.55C52.76 20.51 52.53 21.96 52.26 23.91C52.17 24.59 51.97 25.09 51.67 25.41C51.38 25.73 50.99 25.89 50.52 25.89C50.05 25.89 49.66 25.75 49.35 25.47C48.99 25.13 48.81 24.66 48.81 24.04C48.81 23.15 48.98 21.86 49.33 20.16C49.74 18.08 50.27 16.21 50.9 14.56C51.68 12.52 52.54 11.05 53.48 10.13C53.88 9.75 54.26 9.49 54.62 9.34C54.98 9.19 55.44 9.11 56 9.11L56.37 9.11C56.93 9.11 57.39 9.19 57.75 9.34C58.12 9.49 58.5 9.75 58.89 10.13C59.84 11.05 60.69 12.52 61.47 14.56C62.1 16.21 62.63 18.08 63.05 20.16C63.39 21.86 63.56 23.15 63.56 24.04C63.56 24.66 63.38 25.13 63.02 25.47C62.71 25.75 62.32 25.89 61.85 25.89C61.38 25.89 60.99 25.73 60.7 25.41C60.4 25.09 60.2 24.59 60.11 23.91C59.84 21.96 59.61 20.51 59.41 19.55C59.05 17.79 58.54 16.18 57.89 14.72C57.51 13.87 57.16 13.29 56.84 13C56.65 12.81 56.43 12.69 56.18 12.62ZM40.76 2.99C41.93 2.93 42.79 2.57 43.36 1.91C43.42 1.84 43.48 1.76 43.54 1.68C43.77 1.35 43.94 1.17 44.41 1.17L46.76 1.17C47.34 1.17 47.4 1.48 47.21 1.91C46.79 2.95 46.24 3.81 45.59 4.49C44.34 5.78 42.63 6.37 40.45 6.43C39.41 6.45 38.59 6.83 38.02 7.5C37.48 8.14 37.15 9.06 37.04 10.27C37.75 9.86 38.39 9.57 38.97 9.39C39.55 9.21 40.12 9.12 40.68 9.12C42.6 9.12 44.2 9.86 45.5 11.34C46.79 12.81 47.44 14.79 47.44 17.27C47.44 19.75 46.86 21.63 45.7 23.22C44.42 25.01 42.66 25.9 40.44 25.9C38.05 25.9 36.2 24.95 34.91 23.06C33.62 21.18 32.97 18.58 32.97 15.27C32.97 10.32 33.91 6.87 35.79 4.92C36.89 3.79 38.34 3.15 40.15 3.01C40.36 2.99 40.55 3 40.76 2.99L40.76 2.99ZM43.75 17.21C43.75 16 43.46 14.95 42.9 14.05C42.25 13.02 41.36 12.49 40.24 12.49C39.65 12.49 38.95 12.66 38.15 13C37.68 13.19 37.21 13.45 36.74 13.77L36.66 15.71C36.66 17.89 36.99 19.55 37.65 20.69C38.31 21.82 39.22 22.39 40.38 22.39C41.43 22.39 42.25 21.92 42.85 20.99C43.45 20.06 43.75 18.79 43.75 17.21ZM138.26 10.67C138.26 11.74 138 12.54 137.48 13.06C136.96 13.59 136.43 13.85 135.88 13.85C135.69 13.85 135.53 13.76 135.4 13.6C135.27 13.44 135.14 13.26 135.02 13.06C134.89 12.87 134.75 12.68 134.61 12.52C134.46 12.36 134.28 12.27 134.06 12.27C133.61 12.27 133.27 12.6 133.05 13.25C132.82 13.91 132.71 14.84 132.71 16.04C132.71 16.65 132.77 17.28 132.87 17.93C132.98 18.59 133.1 19.27 133.24 19.98C133.38 20.69 133.5 21.43 133.61 22.22C133.72 23.01 133.77 23.83 133.77 24.67C133.77 25.2 133.56 25.63 133.15 25.97C132.74 26.3 132.26 26.46 131.72 26.44C131.44 26.44 131.21 26.38 131.01 26.26C130.82 26.14 130.61 26.02 130.4 25.89C130.18 25.75 129.94 25.63 129.66 25.53C129.39 25.42 129.05 25.36 128.64 25.36C128.16 25.36 127.79 25.15 127.52 24.72C127.25 24.3 127.04 23.54 126.9 22.45C126.77 21.36 126.68 19.88 126.64 18.02C126.6 16.15 126.58 13.78 126.58 10.9C126.58 9.83 126.72 9.1 126.99 8.72C127.27 8.34 127.89 8.15 128.87 8.15L131.31 8.15C131.54 8.15 131.72 8.22 131.84 8.36C131.95 8.51 132.05 8.67 132.13 8.86C132.21 9.04 132.28 9.2 132.35 9.35C132.42 9.49 132.52 9.56 132.66 9.56C132.79 9.56 132.92 9.45 133.05 9.23C133.18 9.01 133.34 8.77 133.55 8.51C133.76 8.25 134.02 8.01 134.35 7.79C134.67 7.57 135.09 7.47 135.62 7.47C136.48 7.47 137.14 7.76 137.59 8.36C138.04 8.96 138.26 9.73 138.26 10.67L138.26 10.67ZM118 14.4C118.14 14.4 118.31 14.35 118.5 14.26C118.7 14.16 118.88 14.02 119.06 13.85C119.24 13.67 119.39 13.47 119.52 13.23C119.65 12.99 119.71 12.73 119.71 12.44C119.71 12.09 119.53 11.92 119.18 11.92C118.83 11.92 118.45 12.08 118.04 12.39C117.63 12.71 117.42 13.18 117.42 13.81C117.42 13.92 117.46 14.05 117.55 14.19C117.64 14.33 117.79 14.41 118.01 14.41L118 14.4ZM125.34 19.87C125.34 20.61 125.2 21.36 124.9 22.11C124.61 22.86 124.18 23.54 123.61 24.15C123.04 24.77 122.34 25.25 121.49 25.63C120.65 26 119.68 26.18 118.59 26.18C117.49 26.18 116.52 25.94 115.68 25.44C114.84 24.95 114.14 24.29 113.57 23.45C113 22.61 112.57 21.62 112.28 20.49C111.99 19.35 111.84 18.13 111.84 16.82C111.84 15.25 112.04 13.9 112.44 12.75C112.84 11.6 113.39 10.66 114.09 9.9C114.78 9.15 115.59 8.59 116.51 8.22C117.43 7.84 118.41 7.66 119.45 7.66C120.25 7.66 121 7.78 121.69 8.02C122.39 8.26 122.99 8.6 123.5 9.03C124.01 9.47 124.41 9.99 124.7 10.59C124.99 11.19 125.14 11.85 125.14 12.57C125.14 13.48 124.97 14.23 124.63 14.81C124.28 15.39 123.86 15.86 123.35 16.23C122.84 16.6 122.28 16.91 121.68 17.15C121.07 17.39 120.51 17.62 120 17.85C119.49 18.08 119.07 18.33 118.73 18.6C118.38 18.87 118.21 19.24 118.21 19.7C118.21 20.2 118.42 20.55 118.84 20.76C119.26 20.97 119.72 21.07 120.21 21.07C120.7 21.07 121.2 20.93 121.65 20.63C122.1 20.33 122.51 20.02 122.9 19.66C123.28 19.32 123.62 18.99 123.92 18.7C124.23 18.4 124.5 18.26 124.73 18.26C124.89 18.26 125.03 18.41 125.16 18.73C125.28 19.05 125.35 19.42 125.35 19.86L125.34 19.87ZM103.24 14.4C103.37 14.4 103.54 14.35 103.74 14.26C103.93 14.16 104.12 14.02 104.29 13.85C104.47 13.67 104.62 13.47 104.75 13.23C104.88 12.99 104.94 12.73 104.94 12.44C104.94 12.09 104.76 11.92 104.41 11.92C104.06 11.92 103.68 12.08 103.27 12.39C102.85 12.71 102.65 13.18 102.65 13.81C102.65 13.92 102.69 14.05 102.78 14.19C102.87 14.33 103.02 14.41 103.24 14.41L103.24 14.4ZM110.58 19.87C110.58 20.61 110.43 21.36 110.13 22.11C109.84 22.86 109.41 23.54 108.84 24.15C108.27 24.77 107.57 25.25 106.73 25.63C105.89 26 104.92 26.18 103.82 26.18C102.73 26.18 101.76 25.94 100.92 25.44C100.08 24.95 99.37 24.29 98.8 23.45C98.24 22.61 97.81 21.62 97.51 20.49C97.22 19.35 97.07 18.13 97.07 16.82C97.07 15.25 97.27 13.9 97.67 12.75C98.07 11.6 98.62 10.66 99.32 9.9C100.01 9.15 100.82 8.59 101.74 8.22C102.66 7.84 103.64 7.66 104.67 7.66C105.47 7.66 106.22 7.78 106.92 8.02C107.61 8.26 108.21 8.6 108.72 9.03C109.23 9.47 109.63 9.99 109.93 10.59C110.22 11.19 110.37 11.85 110.37 12.57C110.37 13.48 110.19 14.23 109.85 14.81C109.51 15.39 109.09 15.86 108.58 16.23C108.07 16.6 107.51 16.91 106.9 17.15C106.3 17.39 105.74 17.62 105.23 17.85C104.72 18.08 104.29 18.33 103.95 18.6C103.61 18.87 103.44 19.24 103.44 19.7C103.44 20.2 103.65 20.55 104.07 20.76C104.49 20.97 104.94 21.07 105.43 21.07C105.92 21.07 106.42 20.93 106.87 20.63C107.32 20.33 107.74 20.02 108.12 19.66C108.5 19.32 108.84 18.99 109.15 18.7C109.45 18.4 109.72 18.26 109.95 18.26C110.11 18.26 110.25 18.41 110.38 18.73C110.51 19.05 110.57 19.42 110.57 19.86L110.58 19.87ZM89.76 15.84C89.76 14.55 89.69 13.56 89.55 12.87C89.4 12.17 89.18 11.82 88.87 11.82C88.68 11.82 88.52 11.93 88.41 12.16C88.29 12.39 88.2 12.69 88.15 13.06C88.09 13.43 88.06 13.85 88.05 14.33C88.04 14.81 88.03 15.31 88.03 15.81C88.03 17.44 88.12 18.53 88.28 19.06C88.44 19.6 88.64 19.86 88.87 19.86C89.16 19.86 89.38 19.59 89.53 19.05C89.68 18.5 89.76 17.43 89.76 15.84L89.76 15.84ZM95.9 15.03C95.9 18.41 95.32 21.07 94.16 23.01C93.01 24.95 91.25 25.92 88.89 25.92C88.07 25.92 87.29 25.83 86.56 25.66C85.82 25.49 85.02 25.4 84.16 25.4C83.71 25.4 83.34 25.19 83.04 24.76C82.74 24.34 82.51 23.77 82.35 23.06C82.18 22.35 82.06 21.55 81.99 20.66C81.93 19.76 81.89 18.84 81.89 17.91C81.89 16.88 81.91 15.93 81.97 15.05C82.02 14.16 82.08 13.26 82.16 12.35C82.23 11.43 82.29 10.45 82.34 9.42C82.4 8.38 82.42 7.2 82.42 5.87C82.42 4.78 82.56 3.97 82.83 3.45C83.11 2.92 83.65 2.66 84.45 2.66L88.03 2.66C88.72 2.66 89.15 2.77 89.32 2.99C89.5 3.21 89.59 3.5 89.59 3.88C89.59 4.12 89.54 4.37 89.44 4.64C89.34 4.92 89.23 5.21 89.1 5.51C88.98 5.82 88.86 6.13 88.77 6.44C88.67 6.76 88.62 7.08 88.62 7.41C88.62 8.15 88.81 8.52 89.18 8.52C89.37 8.52 89.61 8.44 89.9 8.28C90.18 8.11 90.59 8.03 91.12 8.03C91.82 8.03 92.46 8.2 93.05 8.54C93.64 8.88 94.14 9.35 94.57 9.98C94.99 10.6 95.32 11.34 95.55 12.2C95.79 13.06 95.9 14.01 95.9 15.03L95.9 15.03ZM28.24 17.64C28.24 16.01 27.97 14.72 27.45 13.79C26.85 12.73 25.99 12.2 24.87 12.2C23.66 12.2 22.74 12.76 22.1 13.88C21.58 14.82 21.32 16.04 21.32 17.55C21.32 19.05 21.62 20.21 22.24 21.09C22.85 21.97 23.72 22.41 24.84 22.41C25.75 22.41 26.47 22.15 27.01 21.62C27.83 20.81 28.23 19.48 28.23 17.64L28.24 17.64Z" fill="#000000" fill-opacity="1.000000" fill-rule="nonzero"/>
		</mask>
		<g mask="url(#mask1_524)">
			<path id="Vector" d="M1.17 1.17L138.26 1.17L138.26 26.47L1.17 26.47L1.17 1.17Z" fill="url(#paint_linear_1_527_0)" fill-opacity="1.000000" fill-rule="evenodd"/>
		</g>
	</g>
</svg>
