<svg width="55.391235" height="50.000000" viewBox="0 0 55.3912 50" fill="none" xmlns="http://www.w3.org/2000/svg" xmlns:xlink="http://www.w3.org/1999/xlink">
	<desc>
			Created with Pixso.
	</desc>
	<defs>
		<linearGradient x1="47.377796" y1="9.391533" x2="4.779949" y2="46.957684" id="paint_linear_1_667_0" gradientUnits="userSpaceOnUse">
			<stop stop-color="#F4B83F"/>
			<stop offset="1.000000" stop-color="#F7D046"/>
		</linearGradient>
	</defs>
	<path id="Vector" d="M14.78 34.87C17.84 34.53 19.87 35.71 20.56 38.83C22.82 36.85 25.79 37.11 27.72 39.4C28.59 38.29 29.71 37.63 31.12 37.51C32.53 37.4 33.74 37.89 34.81 38.87C35.51 35.71 37.55 34.54 40.6 34.87C39.53 30.87 40.85 29.04 45.68 27.85C44.09 25.55 44.4 23.37 46.16 21.28C44.32 20.65 43.19 19.42 42.91 17.52C42.74 16.3 43 15.11 43.37 13.95C43.43 13.78 43.48 13.6 43.54 13.43C43.06 13.38 42.62 13.37 42.18 13.29C41.03 13.08 40.1 12.48 39.46 11.5C37.19 8.05 36.96 4.4 38.46 0.6C38.66 0.09 39.04 -0.07 39.59 0.04C44.72 1.05 47.15 4.96 47.33 8.63C47.33 8.66 47.35 8.7 47.38 8.81C48.02 8.36 48.63 7.92 49.24 7.48C50.07 6.9 50.58 7.05 50.96 7.99C51.36 8.99 51.78 9.98 52.14 11C52.9 13.2 52.9 15.41 52.01 17.72C52.68 17.5 53.27 17.31 53.85 17.12C54.9 16.77 55.36 17.11 55.38 18.2C55.41 20.31 55.38 22.41 54.6 24.41C54.06 25.79 53.33 27.05 52.32 28.21C52.84 28.35 53.31 28.45 53.77 28.59C54.31 28.76 54.59 29.2 54.44 29.7C53.53 32.73 51.88 35.18 48.93 36.57C48.37 36.83 47.77 37.02 47.13 37.27C47.67 37.7 48.2 38.1 48.71 38.52C49.25 38.98 49.28 39.55 48.77 40C46.1 42.33 43.05 43.71 39.46 43.74C38.98 43.75 38.51 43.66 37.98 43.61C38.7 45.23 39.03 46.94 39.26 48.67C39.39 49.66 38.95 50.1 37.96 49.96C36.26 49.72 34.58 49.42 33 48.73C30.97 47.86 29.19 46.65 27.69 44.97C26.67 46.12 25.48 47.06 24.17 47.84C22 49.14 19.62 49.72 17.14 49.99C16.43 50.06 16.01 49.57 16.1 48.82C16.33 47.11 16.62 45.41 17.31 43.8C17.34 43.74 17.35 43.67 17.36 43.63C13.89 44.04 10.81 43.08 8.01 41.1C7.57 40.78 7.16 40.44 6.74 40.1C6.07 39.56 6.08 39 6.76 38.44C7.23 38.06 7.71 37.68 8.19 37.29C8.19 37.29 8.19 37.26 8.19 37.2C6.75 36.81 5.45 36.14 4.29 35.18C2.54 33.73 1.6 31.79 0.94 29.69C0.78 29.19 1.07 28.74 1.6 28.58C2.06 28.45 2.53 28.35 3.06 28.21C2.07 27.07 1.34 25.83 0.8 24.47C-0.05 22.32 -0.04 20.07 0.02 17.82C0.04 17.19 0.59 16.84 1.21 17.02C1.9 17.22 2.58 17.46 3.21 17.67C3.04 16.62 2.79 15.6 2.71 14.56C2.6 13.21 2.88 11.89 3.37 10.63C3.73 9.7 4.1 8.77 4.48 7.84C4.79 7.1 5.34 6.94 6 7.38C6.65 7.83 7.3 8.3 8 8.8C8.09 8.23 8.15 7.71 8.26 7.19C8.96 3.86 11.48 0.84 15.9 0.02C16.38 -0.07 16.74 0.14 16.92 0.59C18.42 4.4 18.2 8.05 15.92 11.5C15.08 12.76 13.84 13.37 12.32 13.39C12.19 13.39 12.06 13.4 11.93 13.4C11.91 13.4 11.9 13.41 11.89 13.41C12.06 14.13 12.29 14.85 12.39 15.57C12.8 18.56 11.96 20.05 9.27 21.29C11.11 24.19 11.19 25.26 9.73 27.83C10.42 28.03 11.12 28.19 11.79 28.42C14.62 29.37 15.82 31.85 14.82 34.66C14.8 34.71 14.79 34.77 14.77 34.87L14.78 34.87ZM24.72 39.43C23.56 39.11 22.62 39.38 21.85 40.16C20.17 41.84 19.02 43.83 18.42 46.13C18.26 46.73 18.16 47.34 18.03 47.96C18.19 47.98 18.24 48.01 18.29 48C21.38 47.57 24.04 46.26 26.16 43.96C27.05 43 27.01 41.48 26.18 40.5C24.82 42.07 23.48 43.64 22.12 45.22C21.63 44.8 21.2 44.43 20.77 44.05C22.1 42.49 23.39 40.99 24.72 39.43L24.72 39.43ZM37.2 48.12C37.24 48.06 37.28 48 37.32 47.93C37.28 47.63 37.24 47.32 37.18 47.01C36.65 44.37 35.44 42.08 33.55 40.17C32.71 39.33 31.57 39.07 30.72 39.5C32.01 41.02 33.3 42.52 34.62 44.06C34.16 44.45 33.73 44.83 33.27 45.22C31.9 43.63 30.56 42.07 29.21 40.51C28.3 41.51 28.39 43.16 29.43 44.21C30.74 45.53 32.26 46.56 34.02 47.19C35.05 47.57 36.14 47.82 37.2 48.12ZM42.42 34.2C42.79 35.11 43.76 35.72 44.85 35.7C47.03 35.66 48.91 34.88 50.45 33.33C51.35 32.42 51.98 31.35 52.36 30.12C50.19 29.36 47.06 29.25 44.9 29.88C44.32 30.05 43.74 30.27 43.22 30.57C42.56 30.96 42.18 31.57 42.05 32.43C44.38 31.73 46.6 31.07 48.87 30.4C49.04 30.98 49.21 31.53 49.38 32.1C47.03 32.81 44.72 33.51 42.42 34.2L42.42 34.2ZM13.36 32.44C13.13 31.39 12.64 30.68 11.77 30.34C8.9 29.21 5.99 29.2 3.05 30.09C3.95 33.46 7.4 35.91 10.88 35.68C11.81 35.61 12.53 35.11 13.02 34.22C10.65 33.5 8.35 32.81 6 32.1C6.18 31.51 6.35 30.97 6.52 30.4C8.8 31.07 11.02 31.74 13.36 32.44L13.36 32.44ZM8.28 19.62C7.61 17.61 6.97 15.66 6.31 13.67C6.9 13.47 7.43 13.3 8 13.11C8.65 15.04 9.28 16.9 9.93 18.84C10.51 18.23 10.74 17.6 10.72 16.89C10.64 13.38 8.67 11.14 5.73 9.47C5.4 10.4 5 11.28 4.75 12.21C4.17 14.43 4.49 16.52 5.81 18.42C6.39 19.26 7.2 19.66 8.28 19.62L8.28 19.62ZM45.46 18.84C46.12 16.88 46.74 15.01 47.38 13.11C47.97 13.3 48.49 13.48 49.07 13.67C48.74 14.69 48.41 15.68 48.09 16.66C47.77 17.63 47.44 18.6 47.1 19.62C48.2 19.65 48.99 19.25 49.57 18.43C51.53 15.6 51.17 12.5 49.54 9.48C48.89 9.94 48.22 10.38 47.6 10.88C45.69 12.44 44.71 14.47 44.66 16.93C44.65 17.63 44.88 18.24 45.46 18.84L45.46 18.84ZM11.89 11.56C13.02 11.68 13.85 11.36 14.42 10.52C15.68 8.67 16.25 6.62 16.04 4.39C15.96 3.58 15.72 2.78 15.56 1.98C12.2 2.71 9.73 5.82 9.85 9.1C9.87 9.57 10.08 10.04 10.2 10.51C10.26 10.51 10.32 10.5 10.38 10.5C11.11 8.68 11.84 6.87 12.58 5.02C13.16 5.25 13.69 5.47 14.24 5.69C13.45 7.66 12.69 9.57 11.89 11.56L11.89 11.56ZM43.49 11.56C42.7 9.57 41.93 7.66 41.15 5.69C41.72 5.46 42.25 5.25 42.81 5.02C43.55 6.87 44.28 8.68 45.07 10.65C45.24 10.21 45.38 9.95 45.45 9.67C45.68 8.71 45.5 7.77 45.2 6.88C44.34 4.3 42.56 2.7 39.97 1.98C39.91 2.05 39.87 2.07 39.86 2.1C38.81 5.17 39.23 8.03 41.09 10.67C41.63 11.44 42.46 11.68 43.49 11.57L43.49 11.56ZM5.2 21.8C6.31 23.34 7.38 24.84 8.47 26.36C9.21 25.26 9.05 23.76 8.06 22.74C7.52 22.18 6.92 21.68 6.29 21.21C4.95 20.23 3.45 19.57 1.75 19.12C1.81 20.01 1.81 20.85 1.93 21.67C2.19 23.53 2.92 25.2 4.1 26.66C4.87 27.6 6.09 27.92 7.03 27.45C5.94 25.92 4.86 24.4 3.75 22.84C4.24 22.48 4.71 22.15 5.2 21.8L5.2 21.8ZM51.64 22.84C50.51 24.42 49.42 25.95 48.3 27.52C49.5 27.86 50.48 27.61 51.21 26.73C53.02 24.55 53.73 21.99 53.57 19.16C53.49 19.17 53.43 19.16 53.38 19.18C53.13 19.25 52.88 19.33 52.64 19.41C50.65 20.08 48.9 21.13 47.42 22.62C46.36 23.68 46.14 25.26 46.92 26.36C48 24.84 49.08 23.34 50.18 21.8C50.67 22.15 51.12 22.47 51.64 22.84L51.64 22.84ZM36.85 40.17C37.2 41.25 38.15 41.98 39.28 41.94C40.24 41.91 41.21 41.8 42.15 41.59C43.85 41.21 45.38 40.43 46.73 39.33C46.69 39.26 46.69 39.21 46.67 39.19C44.46 37.45 41.94 36.59 39.13 36.62C38.3 36.62 37.01 37.37 36.89 38.4L42.84 38.4L42.84 40.17L36.85 40.17L36.85 40.17ZM8.59 39.29C10.87 41.08 13.38 41.98 16.19 41.95C17.3 41.93 18.3 41.14 18.5 40.17L12.54 40.17L12.54 38.38L18.52 38.38C18.2 37.34 17.27 36.62 16.16 36.63C15.36 36.63 14.56 36.7 13.78 36.85C11.87 37.21 10.16 38.01 8.59 39.29L8.59 39.29Z" fill="#FFFFFF" fill-opacity="1.000000" fill-rule="nonzero"/>
	<path id="Vector" d="M14.78 34.87C17.84 34.53 19.87 35.71 20.56 38.83C22.82 36.85 25.79 37.11 27.72 39.4C28.59 38.29 29.71 37.63 31.12 37.51C32.53 37.4 33.74 37.89 34.81 38.87C35.51 35.71 37.55 34.54 40.6 34.87C39.53 30.87 40.85 29.04 45.68 27.85C44.09 25.55 44.4 23.37 46.16 21.28C44.32 20.65 43.19 19.42 42.91 17.52C42.74 16.3 43 15.11 43.37 13.95C43.43 13.78 43.48 13.6 43.54 13.43C43.06 13.38 42.62 13.37 42.18 13.29C41.03 13.08 40.1 12.48 39.46 11.5C37.19 8.05 36.96 4.4 38.46 0.6C38.66 0.09 39.04 -0.07 39.59 0.04C44.72 1.05 47.15 4.96 47.33 8.63C47.33 8.66 47.35 8.7 47.38 8.81C48.02 8.36 48.63 7.92 49.24 7.48C50.07 6.9 50.58 7.05 50.96 7.99C51.36 8.99 51.78 9.98 52.14 11C52.9 13.2 52.9 15.41 52.01 17.72C52.68 17.5 53.27 17.31 53.85 17.12C54.9 16.77 55.36 17.11 55.38 18.2C55.41 20.31 55.38 22.41 54.6 24.41C54.06 25.79 53.33 27.05 52.32 28.21C52.84 28.35 53.31 28.45 53.77 28.59C54.31 28.76 54.59 29.2 54.44 29.7C53.53 32.73 51.88 35.18 48.93 36.57C48.37 36.83 47.77 37.02 47.13 37.27C47.67 37.7 48.2 38.1 48.71 38.52C49.25 38.98 49.28 39.55 48.77 40C46.1 42.33 43.05 43.71 39.46 43.74C38.98 43.75 38.51 43.66 37.98 43.61C38.7 45.23 39.03 46.94 39.26 48.67C39.39 49.66 38.95 50.1 37.96 49.96C36.26 49.72 34.58 49.42 33 48.73C30.97 47.86 29.19 46.65 27.69 44.97C26.67 46.12 25.48 47.06 24.17 47.84C22 49.14 19.62 49.72 17.14 49.99C16.43 50.06 16.01 49.57 16.1 48.82C16.33 47.11 16.62 45.41 17.31 43.8C17.34 43.74 17.35 43.67 17.36 43.63C13.89 44.04 10.81 43.08 8.01 41.1C7.57 40.78 7.16 40.44 6.74 40.1C6.07 39.56 6.08 39 6.76 38.44C7.23 38.06 7.71 37.68 8.19 37.29C8.19 37.29 8.19 37.26 8.19 37.2C6.75 36.81 5.45 36.14 4.29 35.18C2.54 33.73 1.6 31.79 0.94 29.69C0.78 29.19 1.07 28.74 1.6 28.58C2.06 28.45 2.53 28.35 3.06 28.21C2.07 27.07 1.34 25.83 0.8 24.47C-0.05 22.32 -0.04 20.07 0.02 17.82C0.04 17.19 0.59 16.84 1.21 17.02C1.9 17.22 2.58 17.46 3.21 17.67C3.04 16.62 2.79 15.6 2.71 14.56C2.6 13.21 2.88 11.89 3.37 10.63C3.73 9.7 4.1 8.77 4.48 7.84C4.79 7.1 5.34 6.94 6 7.38C6.65 7.83 7.3 8.3 8 8.8C8.09 8.23 8.15 7.71 8.26 7.19C8.96 3.86 11.48 0.84 15.9 0.02C16.38 -0.07 16.74 0.14 16.92 0.59C18.42 4.4 18.2 8.05 15.92 11.5C15.08 12.76 13.84 13.37 12.32 13.39C12.19 13.39 12.06 13.4 11.93 13.4C11.91 13.4 11.9 13.41 11.89 13.41C12.06 14.13 12.29 14.85 12.39 15.57C12.8 18.56 11.96 20.05 9.27 21.29C11.11 24.19 11.19 25.26 9.73 27.83C10.42 28.03 11.12 28.19 11.79 28.42C14.62 29.37 15.82 31.85 14.82 34.66C14.8 34.71 14.79 34.77 14.77 34.87L14.78 34.87ZM24.72 39.43C23.56 39.11 22.62 39.38 21.85 40.16C20.17 41.84 19.02 43.83 18.42 46.13C18.26 46.73 18.16 47.34 18.03 47.96C18.19 47.98 18.24 48.01 18.29 48C21.38 47.57 24.04 46.26 26.16 43.96C27.05 43 27.01 41.48 26.18 40.5C24.82 42.07 23.48 43.64 22.12 45.22C21.63 44.8 21.2 44.43 20.77 44.05C22.1 42.49 23.39 40.99 24.72 39.43L24.72 39.43ZM37.2 48.12C37.24 48.06 37.28 48 37.32 47.93C37.28 47.63 37.24 47.32 37.18 47.01C36.65 44.37 35.44 42.08 33.55 40.17C32.71 39.33 31.57 39.07 30.72 39.5C32.01 41.02 33.3 42.52 34.62 44.06C34.16 44.45 33.73 44.83 33.27 45.22C31.9 43.63 30.56 42.07 29.21 40.51C28.3 41.51 28.39 43.16 29.43 44.21C30.74 45.53 32.26 46.56 34.02 47.19C35.05 47.57 36.14 47.82 37.2 48.12ZM42.42 34.2C42.79 35.11 43.76 35.72 44.85 35.7C47.03 35.66 48.91 34.88 50.45 33.33C51.35 32.42 51.98 31.35 52.36 30.12C50.19 29.36 47.06 29.25 44.9 29.88C44.32 30.05 43.74 30.27 43.22 30.57C42.56 30.96 42.18 31.57 42.05 32.43C44.38 31.73 46.6 31.07 48.87 30.4C49.04 30.98 49.21 31.53 49.38 32.1C47.03 32.81 44.72 33.51 42.42 34.2L42.42 34.2ZM13.36 32.44C13.13 31.39 12.64 30.68 11.77 30.34C8.9 29.21 5.99 29.2 3.05 30.09C3.95 33.46 7.4 35.91 10.88 35.68C11.81 35.61 12.53 35.11 13.02 34.22C10.65 33.5 8.35 32.81 6 32.1C6.18 31.51 6.35 30.97 6.52 30.4C8.8 31.07 11.02 31.74 13.36 32.44L13.36 32.44ZM8.28 19.62C7.61 17.61 6.97 15.66 6.31 13.67C6.9 13.47 7.43 13.3 8 13.11C8.65 15.04 9.28 16.9 9.93 18.84C10.51 18.23 10.74 17.6 10.72 16.89C10.64 13.38 8.67 11.14 5.73 9.47C5.4 10.4 5 11.28 4.75 12.21C4.17 14.43 4.49 16.52 5.81 18.42C6.39 19.26 7.2 19.66 8.28 19.62L8.28 19.62ZM45.46 18.84C46.12 16.88 46.74 15.01 47.38 13.11C47.97 13.3 48.49 13.48 49.07 13.67C48.74 14.69 48.41 15.68 48.09 16.66C47.77 17.63 47.44 18.6 47.1 19.62C48.2 19.65 48.99 19.25 49.57 18.43C51.53 15.6 51.17 12.5 49.54 9.48C48.89 9.94 48.22 10.38 47.6 10.88C45.69 12.44 44.71 14.47 44.66 16.93C44.65 17.63 44.88 18.24 45.46 18.84L45.46 18.84ZM11.89 11.56C13.02 11.68 13.85 11.36 14.42 10.52C15.68 8.67 16.25 6.62 16.04 4.39C15.96 3.58 15.72 2.78 15.56 1.98C12.2 2.71 9.73 5.82 9.85 9.1C9.87 9.57 10.08 10.04 10.2 10.51C10.26 10.51 10.32 10.5 10.38 10.5C11.11 8.68 11.84 6.87 12.58 5.02C13.16 5.25 13.69 5.47 14.24 5.69C13.45 7.66 12.69 9.57 11.89 11.56L11.89 11.56ZM43.49 11.56C42.7 9.57 41.93 7.66 41.15 5.69C41.72 5.46 42.25 5.25 42.81 5.02C43.55 6.87 44.28 8.68 45.07 10.65C45.24 10.21 45.38 9.95 45.45 9.67C45.68 8.71 45.5 7.77 45.2 6.88C44.34 4.3 42.56 2.7 39.97 1.98C39.91 2.05 39.87 2.07 39.86 2.1C38.81 5.17 39.23 8.03 41.09 10.67C41.63 11.44 42.46 11.68 43.49 11.57L43.49 11.56ZM5.2 21.8C6.31 23.34 7.38 24.84 8.47 26.36C9.21 25.26 9.05 23.76 8.06 22.74C7.52 22.18 6.92 21.68 6.29 21.21C4.95 20.23 3.45 19.57 1.75 19.12C1.81 20.01 1.81 20.85 1.93 21.67C2.19 23.53 2.92 25.2 4.1 26.66C4.87 27.6 6.09 27.92 7.03 27.45C5.94 25.92 4.86 24.4 3.75 22.84C4.24 22.48 4.71 22.15 5.2 21.8L5.2 21.8ZM51.64 22.84C50.51 24.42 49.42 25.95 48.3 27.52C49.5 27.86 50.48 27.61 51.21 26.73C53.02 24.55 53.73 21.99 53.57 19.16C53.49 19.17 53.43 19.16 53.38 19.18C53.13 19.25 52.88 19.33 52.64 19.41C50.65 20.08 48.9 21.13 47.42 22.62C46.36 23.68 46.14 25.26 46.92 26.36C48 24.84 49.08 23.34 50.18 21.8C50.67 22.15 51.12 22.47 51.64 22.84L51.64 22.84ZM36.85 40.17C37.2 41.25 38.15 41.98 39.28 41.94C40.24 41.91 41.21 41.8 42.15 41.59C43.85 41.21 45.38 40.43 46.73 39.33C46.69 39.26 46.69 39.21 46.67 39.19C44.46 37.45 41.94 36.59 39.13 36.62C38.3 36.62 37.01 37.37 36.89 38.4L42.84 38.4L42.84 40.17L36.85 40.17L36.85 40.17ZM8.59 39.29C10.87 41.08 13.38 41.98 16.19 41.95C17.3 41.93 18.3 41.14 18.5 40.17L12.54 40.17L12.54 38.38L18.52 38.38C18.2 37.34 17.27 36.62 16.16 36.63C15.36 36.63 14.56 36.7 13.78 36.85C11.87 37.21 10.16 38.01 8.59 39.29L8.59 39.29Z" fill="url(#paint_linear_1_667_0)" fill-opacity="1.000000" fill-rule="nonzero"/>
</svg>
