<svg width="18.000000" height="18.000000" viewBox="0 0 18 18" fill="none" xmlns="http://www.w3.org/2000/svg" xmlns:xlink="http://www.w3.org/1999/xlink">
	<desc>
			Created with Pixso.
	</desc>
	<defs/>
	<path d="M18 14.69C18 15.02 17.92 15.35 17.77 15.67C17.62 16 17.42 16.3 17.16 16.59C16.72 17.08 16.23 17.43 15.68 17.65C15.14 17.88 14.55 18 13.92 18C13 18 12.02 17.78 10.98 17.34C9.95 16.9 8.91 16.3 7.88 15.56C6.85 14.8 5.86 13.96 4.93 13.04C4 12.1 3.16 11.12 2.41 10.09C1.67 9.07 1.08 8.04 0.64 7.02C0.21 6 0 5.02 0 4.08C0 3.47 0.1 2.88 0.32 2.34C0.54 1.79 0.88 1.29 1.36 0.84C1.93 0.27 2.56 0 3.23 0C3.48 0 3.74 0.05 3.96 0.16C4.2 0.26 4.4 0.43 4.56 0.66L6.66 3.6C6.82 3.83 6.94 4.04 7.02 4.23C7.1 4.42 7.14 4.61 7.14 4.78C7.14 5 7.08 5.21 6.95 5.42C6.84 5.63 6.67 5.84 6.45 6.06L5.76 6.77C5.66 6.87 5.62 6.99 5.62 7.13C5.62 7.2 5.63 7.27 5.65 7.34C5.67 7.41 5.7 7.46 5.72 7.52C5.88 7.82 6.16 8.2 6.56 8.67C6.96 9.14 7.4 9.62 7.86 10.09C8.35 10.57 8.82 11.01 9.3 11.42C9.77 11.81 10.15 12.08 10.46 12.24C10.5 12.26 10.56 12.29 10.62 12.32C10.69 12.34 10.77 12.35 10.85 12.35C11 12.35 11.12 12.3 11.22 12.2L11.9 11.52C12.13 11.3 12.34 11.13 12.55 11.02C12.76 10.89 12.97 10.83 13.19 10.83C13.36 10.83 13.54 10.87 13.74 10.95C13.94 11.03 14.15 11.15 14.37 11.3L17.36 13.41C17.59 13.58 17.75 13.76 17.85 13.99C17.94 14.21 18 14.44 18 14.69Z" fill="#000000" fill-opacity="1.000000" fill-rule="nonzero"/>
</svg>
